# xmcd CD database file
#
# Track frame offsets:
#	180
#	8527
#	15192
#	24344
#	29998
#	38245
#	50454
#	63559
#	71016
#	81304
#	90157
#	103914
#	108374
#	114786
#
# Disc length: 1745 seconds
#
# Revision: 2
# Processed by: cddbd v1.5.1PL2 Copyright (c) Steve Scherf et al.
# Submitted via: CDex 1.51
#
DISCID=a506cf0e
DTITLE=After School Special - Self Titled
DYEAR=1996
DGENRE=Punk Rock
TTITLE0=Kelly Burkett
TTITLE1=The Generation Game
TTITLE2=Sarah, Plain And Tall
TTITLE3=I Don't Wanna hold Your Hand
TTITLE4=Lala Won't Shut Up
TTITLE5=Somewhere Inside
TTITLE6=Wrong
TTITLE7=Adam Baum
TTITLE8=There She Goes
TTITLE9=The Lottery
TTITLE10=I'm A Loner
TTITLE11=Not Gonna Take It
TTITLE12=School Sucks
TTITLE13=Kitty Corner
EXTD=YEAR: 1996
EXTT0=
EXTT1=
EXTT2=
EXTT3=
EXTT4=
EXTT5=
EXTT6=
EXTT7=
EXTT8=
EXTT9=
EXTT10=
EXTT11=
EXTT12=
EXTT13=
PLAYORDER=
